<?xml version="1.0" encoding="UTF-8" standalone="no" ?>
<!DOCTYPE svg PUBLIC "-//W3C//DTD SVG 1.1//EN" "http://www.w3.org/Graphics/SVG/1.1/DTD/svg11.dtd">
<svg xmlns="http://www.w3.org/2000/svg" xmlns:xlink="http://www.w3.org/1999/xlink" version="1.1" width="500" height="500" viewBox="0 0 500 500" xml:space="preserve">
<desc>Teun Weijdener's Handtekening</desc>
<defs>
</defs>
<g transform="matrix(1 0 0 1 222.6 92.21)" id="m8ldpCuTgtUJSfbq1NPxS"  >
<path style="stroke: rgb(0,0,0); stroke-width: 1; stroke-dasharray: none; stroke-linecap: butt; stroke-dashoffset: 0; stroke-linejoin: miter; stroke-miterlimit: 4; fill: rgb(255,255,255); fill-opacity: 0; fill-rule: nonzero; opacity: 1;" vector-effect="non-scaling-stroke"  transform=" translate(0, 0)" d="M 0 0" stroke-linecap="round" />
</g>
<g transform="matrix(1 0 0 1 217.98 269.57)" id="wqW4NJpXpxlIntjpqmvTw"  >
<path style="stroke: rgb(0,0,0); stroke-width: 1; stroke-dasharray: none; stroke-linecap: butt; stroke-dashoffset: 0; stroke-linejoin: miter; stroke-miterlimit: 4; fill: rgb(255,255,255); fill-opacity: 0; fill-rule: nonzero; opacity: 1;" vector-effect="non-scaling-stroke"  transform=" translate(0, 0)" d="M 22.21105 -164.39825 C 22.21105 -164.39825 55.54438 170.78694 -28.71488 164.30545000000004" stroke-linecap="round" />
</g>
<g transform="matrix(1 0 0 1 237.41 102.78)" id="2AekfqmbAcjtqe2tyRgNo"  >
<path style="stroke: rgb(0,0,0); stroke-width: 1; stroke-dasharray: none; stroke-linecap: butt; stroke-dashoffset: 0; stroke-linejoin: miter; stroke-miterlimit: 4; fill: rgb(255,255,255); fill-opacity: 0; fill-rule: nonzero; opacity: 1;" vector-effect="non-scaling-stroke"  transform=" translate(0, 0)" d="M -159.25926 1.88696 C 15.740739999999988 3.73881 159.25926 -2.2426699999999995 159.25926 -2.2426699999999995" stroke-linecap="round" />
</g>
<g transform="matrix(1 0 0 1 243.95 277.39)" id="A8t8dDUAAvejCMc3ucjZn"  >
<path style="stroke: rgb(0,0,0); stroke-width: 1; stroke-dasharray: none; stroke-linecap: round; stroke-dashoffset: 0; stroke-linejoin: round; stroke-miterlimit: 10; fill: none; fill-rule: nonzero; opacity: 1;" vector-effect="non-scaling-stroke"  transform=" translate(-243.95, -277.39)" d="M 252.22973290107794 278.31876820640855 Q 252.22873290107793 278.31876820640855 251.765769938115 278.31876820640855 Q 251.30280697515207 278.31876820640855 250.37688104922614 278.31876820640855 Q 249.45095512330022 278.31876820640855 248.0620662344113 277.8558052434456 Q 246.6731773455224 277.3928422804826 244.82132549367054 274.1521015397419 Q 242.9694736418187 270.91136079900116 242.5065106788557 259.8002496878901 Q 242.04354771589271 248.68913857677893 244.35836253070755 232.48543487307523 Q 246.6731773455224 216.28173116937154 254.54354771589277 197.763212650853 Q 262.41391808626315 179.24469413233447 278.61762178996685 167.20765709529746 Q 294.82132549367054 155.17062005826045 315.1916958640409 148.226175613816 Q 335.5620662344113 141.28173116937154 351.765769938115 137.11506450270488 Q 367.9694736418187 132.94839783603823 378.61762178996685 131.55950894714934 Q 389.265769938115 130.17062005826045 392.5065106788557 130.17062005826045 Q 395.7472514195964 130.17062005826045 390.19169586404087 132.0224719101123 Q 384.6361403084853 133.87432376196415 362.4139180862631 138.0409904286308 Q 340.19169586404087 142.20765709529746 309.1731773455224 144.0595089471493 Q 278.1546588270039 145.91136079900116 246.6731773455224 146.37432376196412 Q 215.19169586404087 146.83728672492708 192.04354771589271 147.30024968789004 Q 168.89539956774456 147.763212650853 148.06206623441125 146.83728672492708 Q 127.22873290107793 145.91136079900116 113.80280697515201 144.52247191011227 Q 100.37688104922609 143.1335830212234 97.13614030848535 142.67062005826043 Q 93.89539956774462 142.20765709529746 96.21021438255943 142.67062005826043 Q 98.52502919737424 143.1335830212234 109.63614030848532 146.37432376196412 Q 120.74725141959641 149.61506450270485 134.63614030848532 153.31876820640858 Q 148.52502919737424 157.0224719101123 162.41391808626315 160.726175613816 Q 176.30280697515207 164.4298793175197 188.33984401218908 166.7446941323345 Q 200.37688104922609 169.0595089471493 213.802806975152 171.83728672492708 Q 227.22873290107793 174.61506450270485 240.19169586404092 176.4669163545567 Q 253.1546588270039 178.31876820640855 258.24725141959647 179.70765709529746 Q 263.339844012189 181.09654598418638 262.4139180862631 181.55950894714934 Q 261.48799216033717 182.0224719101123 254.08058475292978 182.94839783603823 Q 246.6731773455224 183.87432376196415 235.0991032714483 183.87432376196415 Q 223.52502919737424 183.87432376196415 211.95095512330016 182.48543487307526 Q 200.37688104922609 181.09654598418638 188.802806975152 179.2446941323345 Q 177.22873290107793 177.39284228048263 165.65465882700386 174.61506450270485 Q 154.08058475292978 171.83728672492708 147.13614030848532 166.7446941323345 Q 140.19169586404087 161.65210153974192 136.02502919737424 149.61506450270488 Q 131.8583625307076 137.57802746566784 135.0991032714483 121.37432376196415 Q 138.33984401218902 105.17062005826045 147.13614030848532 89.42987931751969 Q 155.93243660478163 73.68913857677893 168.43243660478163 59.33728672492708 Q 180.93243660478163 44.985434873075235 193.89539956774462 37.57802746566783 Q 206.8583625307076 30.170620058260425 220.28428845663353 26.003953391593754 Q 233.71021438255946 21.837286724927083 249.45095512330016 18.59654598418635 Q 265.19169586404087 15.355805243445616 272.5991032714483 15.355805243445616 Q 280.00651067885576 15.355805243445616 283.24725141959647 17.207657095297463 Q 286.48799216033717 19.05950894714931 288.339844012189 24.152101539741906 Q 290.19169586404087 29.2446941323345 290.65465882700386 36.652101539741906 Q 291.11762178996685 44.05950894714931 291.11762178996685 53.78173116937154 Q 291.11762178996685 63.50395339159377 291.11762178996685 75.5409904286308 Q 291.11762178996685 87.57802746566784 287.41391808626315 99.61506450270488 Q 283.71021438255946 111.65210153974192 270.28428845663353 126.92987931751969 Q 256.8583625307076 142.20765709529746 240.19169586404092 159.33728672492708 Q 223.52502919737424 176.4669163545567 209.1731773455224 201.00395339159374 Q 194.82132549367054 225.54099042863078 181.85836253070755 257.02247191011224 Q 168.89539956774456 288.50395339159377 155.46947364181864 320.91136079900116 Q 142.04354771589271 353.31876820640855 130.93243660478163 382.02247191011224 Q 119.82132549367054 410.726175613816 111.95095512330016 436.18913857677893 Q 104.08058475292978 461.65210153974186 99.45095512330016 482.48543487307523 Q 94.82132549367054 503.3187682064086 93.89539956774462 517.2076570952975 Q 92.9694736418187 531.0965459841864 93.89539956774462 535.263212650853 L 94.82232549367055 539.4308793175196" stroke-linecap="round" />
</g>
</svg>