<?xml version="1.0" encoding="UTF-8"?>
<svg width="427px" height="195px" viewBox="0 0 427 195" version="1.1" xmlns="http://www.w3.org/2000/svg" xmlns:xlink="http://www.w3.org/1999/xlink">
    <!-- Generator: Sketch 55.2 (78181) - https://sketchapp.com -->
    <title>Group</title>
    <desc>Created with Sketch.</desc>
    <g id="Page-1" stroke="none" stroke-width="1" fill="none" fill-rule="evenodd">
        <g id="Group" transform="translate(0.880000, 0.000000)" fill-rule="nonzero">
            <path d="M154.75,44.55 C179.25,67.3 169,125.8 159.56,194.13 C113,181.3 8,144.3 5.5,115.55 C2.83,84.81 80.12,64.69 80.12,64.69 C80.12,64.69 48.69,64.34 0,81.79 C29.12,9.43 102.62,8.93 130.81,23.05 C96.12,53.05 76.99,87.2 76.99,87.2 C76.99,87.2 134.67,25.91 154.75,44.55 Z" id="Path" stroke="#512178" fill="#512178"></path>
            <path d="M228.88,44.52 C222.14,44.52 218.37,41.52 218.37,37.88 C218.37,35.43 220.07,33.64 222.61,32.32 C221.593833,31.7967842 220.984982,30.7204921 221.06,29.58 C221.28384,27.8789157 222.203686,26.3470455 223.6,25.35 C221.269044,23.9121208 219.872948,21.3481741 219.93,18.61 C219.932152,16.4292758 220.812443,14.3413051 222.372219,12.8172775 C223.931996,11.2932498 226.039812,10.4615981 228.22,10.51 C229.565711,10.4265153 230.910692,10.6845042 232.13,11.26 C232.292709,11.4040186 232.537291,11.4040186 232.7,11.26 C234.439023,9.85060056 236.712644,9.28311073 238.91,9.71 L237.91,12.82 C236.849935,12.4659044 235.698844,12.4977808 234.66,12.91 C236.331218,14.3715139 237.280868,16.4899649 237.26,18.71 C237.26,23.56 233.67,26.9 228.49,26.9 C227.528885,26.9209777 226.572359,26.7615566 225.67,26.43 C224.951826,27.0910173 224.545261,28.0239392 224.55,29 C224.55,32.25 239.95,28.91 239.95,37.34 C239.95,41 236.65,44.52 228.88,44.52 Z M225.12,33.35 C223.89,34.11 221.91,35.35 221.91,37.5 C221.91,39.81 224.74,41.64 229.08,41.64 C233.42,41.64 236.08,40.04 236.08,37.64 C236.12,33.64 228.12,34.15 225.12,33.35 Z M228.51,13.47 C227.129802,13.3958231 225.783739,13.9152755 224.811172,14.8973963 C223.838605,15.8795172 223.332335,17.2305932 223.42,18.61 C223.330165,20.0063899 223.829577,21.3765301 224.796918,22.3875822 C225.764259,23.3986342 227.111005,23.9580737 228.51,23.93 C229.917611,24.0068976 231.289705,23.4713293 232.273013,22.461187 C233.25632,21.4510446 233.75476,20.0650307 233.64,18.66 C233.710591,17.2806109 233.200482,15.9346632 232.233376,14.9485576 C231.266271,13.9624519 229.930501,13.4262558 228.55,13.47 L228.51,13.47 Z" id="Shape" fill="#49AB35"></path>
            <path d="M252.25,14.51 C251.612723,14.2602071 250.934483,14.1313414 250.25,14.13 C248.74,14.13 247.14,15.03 245.25,16.82 L245.25,33.35 L241.81,33.35 L241.81,11.07 L244.63,11.07 L245.11,13.62 C248.17,10.83 249.86,10.51 251.28,10.51 C252.143274,10.4887304 252.994228,10.7179671 253.73,11.17 L252.25,14.51 Z" id="Path" fill="#49AB35"></path>
            <path d="M270.76,31 C268.887832,32.8624336 266.329288,33.8684807 263.69,33.78 C261.105862,33.8614746 258.602466,32.8738632 256.77,31.05 C254.77,28.98 253.66,25.82 253.66,22.15 C253.520025,18.9218993 254.634493,15.7648372 256.77,13.34 C260.658435,9.52857124 266.881565,9.52857124 270.77,13.34 C272.905507,15.7648372 274.019975,18.9218993 273.88,22.15 C274.036248,25.3943374 272.916356,28.5709534 270.76,31 L270.76,31 Z M263.76,13.39 C259.57,13.39 257.16,16.78 257.16,22.05 C257.16,27.32 259.66,30.82 263.81,30.82 C267.96,30.82 270.45,27.33 270.45,22.05 C270.45,16.77 268.03,13.43 263.74,13.43 L263.76,13.39 Z" id="Shape" fill="#49AB35"></path>
            <path d="M279.47,22.8 C279.47,27.04 281.92,30.86 286.72,30.86 C288.635671,30.8058746 290.501242,30.2358389 292.12,29.21 L293.2,31.66 C291.132968,32.9965105 288.740286,33.7433592 286.28,33.82 C279.16,33.82 275.77,28.12 275.77,21.76 C275.77,15.4 279.45,10.51 284.82,10.51 C290.57,10.51 293.72,15.08 293.72,22 L293.72,22.8 L279.47,22.8 Z M284.88,13.43 C281.59,13.43 279.51,16.35 279.51,19.88 L290.02,19.88 C290.02,16.77 288.28,13.43 284.88,13.43 L284.88,13.43 Z" id="Shape" fill="#49AB35"></path>
            <path d="M311.22,33.35 L311.22,19.64 C311.22,16.87 310.74,13.76 307.35,13.76 C304.62,13.76 302.12,15.69 300.43,17.15 L300.43,33.35 L296.99,33.35 L296.99,11.07 L299.81,11.07 L300.29,13.76 C302.73,11.87 305.14,10.51 308.29,10.51 C311.44,10.51 314.69,12.81 314.69,18.37 L314.69,33.37 L311.22,33.35 Z" id="Path" fill="#49AB35"></path>
            <path d="M320.43,22.8 C320.43,27.04 322.88,30.86 327.69,30.86 C329.616003,30.8117543 331.492766,30.2414673 333.12,29.21 L334.21,31.66 C332.139217,32.9963946 329.743369,33.7431522 327.28,33.82 C320.17,33.82 316.78,28.12 316.78,21.76 C316.78,15.4 320.45,10.51 325.78,10.51 C331.53,10.51 334.69,15.08 334.69,22 L334.69,22.8 L320.43,22.8 Z M325.85,13.43 C322.55,13.43 320.48,16.35 320.48,19.88 L330.98,19.88 C330.98,16.77 329.24,13.43 325.85,13.43 L325.85,13.43 Z" id="Shape" fill="#49AB35"></path>
            <path d="M363.26,33.35 L363.26,19.5 C363.26,16.72 362.74,13.76 359.26,13.76 C356.57,13.76 354.31,15.64 352.48,17.1 L352.48,33.35 L349.04,33.35 L349.04,0 L352.48,0 L352.48,13.71 C354.93,11.82 357.14,10.51 360.25,10.51 C363.36,10.51 366.7,12.58 366.7,18.66 L366.7,33.35 L363.26,33.35 Z" id="Path" fill="#49AB35"></path>
            <path d="M383.4,33.35 L382.5,31.19 C380.6684,32.9475176 378.207316,33.8951968 375.67,33.82 C373.843759,33.8758911 372.075403,33.1756588 370.782505,31.884654 C369.489607,30.5936491 368.786785,28.8263204 368.84,27 C368.84,22.62 371.9,19.94 377.79,19.75 L382.32,19.61 L382.32,18.18 C382.32,14.75 380.43,13.47 377.6,13.47 C375.4486,13.493588 373.364749,14.2245169 371.67,15.55 L370.26,13.05 C372.490099,11.389135 375.199413,10.4977286 377.98,10.509875 C382.32,10.509875 385.75,12.34 385.75,18.04 L385.75,24.83 C385.75,31.14 385.94,32.65 386.23,33.35 L383.4,33.35 Z M382.32,22.66 L378.12,22.8 C373.98,22.94 372.28,24.31 372.28,26.9 C372.28,29.02 373.69,30.9 376.61,30.9 C378.792435,30.9152519 380.874696,29.9853455 382.32,28.35 L382.32,22.66 Z" id="Shape" fill="#49AB35"></path>
            <path d="M399.73,14.51 C399.092723,14.2602071 398.414483,14.1313414 397.73,14.13 C396.23,14.13 394.62,15.03 392.73,16.82 L392.73,33.35 L389.29,33.35 L389.29,11.07 L392.12,11.07 L392.59,13.62 C395.65,10.83 397.35,10.51 398.76,10.51 C399.623619,10.4858267 400.475388,10.7152829 401.21,11.17 L399.73,14.51 Z" id="Path" fill="#49AB35"></path>
            <path d="M409.85,33.82 C406.6,33.82 405.05,31.94 405.05,29.07 L405.05,13.9 L401.42,13.9 L401.42,11.07 L405.05,11.07 L405.05,6.17 L408.49,5 L408.49,11.08 L415.32,11.08 L414.12,13.9 L408.52,13.9 L408.52,28.27 C408.52,30.1 409.22,30.86 410.78,30.86 C412.131437,30.8071945 413.445288,30.4002801 414.59,29.68 L415.59,32.13 C413.869584,33.212902 411.882737,33.7978797 409.85,33.82 L409.85,33.82 Z" id="Path" fill="#49AB35"></path>
            <path d="M156.300008,22 C156.300008,25.6174651 153.367465,28.55 149.75,28.55 C146.132535,28.55 143.2,25.6174651 143.2,22 C143.2,18.3825349 146.132535,15.4499923 149.75,15.4499923 C151.487982,15.4473405 153.155546,16.1365737 154.384486,17.365514 C155.613426,18.5944543 156.30266,20.2620181 156.300008,22 L156.300008,22 Z" id="Path" stroke="#512178" stroke-width="1.3" fill="#512178"></path>
            <path d="M182.040008,22 C182.040008,25.6174651 179.107465,28.55 175.49,28.55 C171.872535,28.55 168.94,25.6174651 168.94,22 C168.94,18.3825349 171.872535,15.4499923 175.49,15.4499923 C177.227982,15.4473405 178.895546,16.1365737 180.124486,17.365514 C181.353426,18.5944543 182.04266,20.2620181 182.040008,22 L182.040008,22 Z" id="Path" stroke="#512178" stroke-width="1.3" fill="#512178"></path>
            <path d="M207.760008,22 C207.760008,24.6501371 206.163056,27.0391349 203.714261,28.0523618 C201.265466,29.0655886 198.447411,28.5033631 196.574914,26.6280022 C194.702416,24.7526413 194.144497,21.9337309 195.161464,19.4864867 C196.178431,17.0392424 198.569866,15.445954 201.22,15.4499923 C202.95625,15.4499923 204.621242,16.1404042 205.848017,17.3690558 C207.074793,18.5977074 207.762655,20.2637522 207.760008,22 L207.760008,22 Z" id="Path" stroke="#512178" stroke-width="1.3" fill="#512178"></path>
            <path d="M294.17,137.4 C292.310216,137.519934 290.488005,136.838286 289.163535,135.527195 C287.839065,134.216103 287.138953,132.400906 287.24,130.54 C287.24,126.65 290.16,123.48 294.79,123.48 C296.010238,123.450088 297.221142,123.699794 298.33,124.21 L298.33,126.78 C297.309241,126.142458 296.133384,125.796617 294.93,125.78 C292.38949,125.713726 290.276274,127.71949 290.21,130.26 C290.143726,132.80051 292.14949,134.913726 294.69,134.98 C295.873902,134.969282 297.034878,134.652339 298.06,134.06 L298.87,136.06 C297.454625,136.926412 295.829473,137.389754 294.17,137.4 L294.17,137.4 Z" id="Path" fill="#512178"></path>
            <polygon id="Path" fill="#512178" points="310.99 137.18 310.99 131.5 304.71 131.5 304.71 137.18 301.89 137.18 301.89 123.62 304.71 123.62 304.71 129.07 310.99 129.07 310.99 123.62 313.81 123.62 313.81 137.18"></polygon>
            <path d="M325.52,137.24 C323.52,133.72 322.64,132.19 322.15,132.11 L321.12,132.11 L321.12,137.24 L318.31,137.24 L318.31,123.67 L322.26,123.67 C325.88,123.67 327.2,125.46 327.2,127.56 C327.268789,129.157293 326.255456,130.601395 324.73,131.08 L324.73,131.08 C325.41,131.48 326.73,133.76 328.73,137.22 L325.52,137.24 Z M322.29,126 L321.12,126 L321.12,129.75 L322.32,129.75 C322.855022,129.804088 323.387752,129.62771 323.784789,129.265032 C324.181826,128.902354 324.405572,128.38772 324.4,127.85 C324.405356,127.310791 324.175183,126.796082 323.769724,126.440585 C323.364265,126.085087 322.82388,125.924189 322.29,126 L322.29,126 Z" id="Shape" fill="#512178"></path>
            <polygon id="Path" fill="#512178" points="332.02 137.21 332.02 123.65 334.84 123.65 334.84 137.21"></polygon>
            <path d="M342.75,137.44 C341.211804,137.461659 339.70281,137.019067 338.42,136.17 L339.51,134.17 C340.421283,134.817379 341.502802,135.182523 342.62,135.22 C343.62,135.22 344.72,134.85 344.72,133.82 C344.72,132.03 341.43,131.72 339.78,129.82 C339.200292,129.153501 338.893201,128.292929 338.92,127.41 C338.92,125.35 340.54,123.54 343.53,123.54 C344.717834,123.519539 345.891333,123.80173 346.94,124.36 L346.94,126.79 C345.968048,126.18269 344.855077,125.838117 343.71,125.79 C342.71,125.79 341.92,126.24 341.92,127.02 C341.92,129.37 347.75,129.16 347.75,133.42 C347.71,135.9 345.52,137.44 342.75,137.44 Z" id="Path" fill="#512178"></path>
            <polygon id="Path" fill="#512178" points="360.63 126 356.99 126 356.99 137.26 354.12 137.26 354.12 126 350.12 126 350.12 123.7 361.21 123.7"></polygon>
            <polygon id="Path" fill="#512178" points="364.73 137.21 364.73 123.64 372.59 123.64 371.84 125.95 367.55 125.95 367.55 129.12 371.87 129.12 371.87 131.44 367.55 131.44 367.55 134.9 372.55 134.9 372.55 137.21"></polygon>
            <polygon id="Path" fill="#512178" points="376.56 137.24 376.56 123.67 379.36 123.67 379.36 134.91 384.12 134.91 384.12 137.24"></polygon>
            <polygon id="Path" fill="#512178" points="387.61 137.24 387.61 123.67 390.43 123.67 390.43 137.24"></polygon>
            <path d="M395.52,141.13 C394.839209,141.117836 394.164462,140.999755 393.52,140.78 L394.1,138.68 C394.525377,138.822443 394.97142,138.893405 395.42,138.89 C396.75,138.89 396.88,137.89 396.88,136.33 L396.88,123.84 L399.68,123.84 L399.68,136.93 C399.68,139.42 398.55,141.13 395.52,141.13 Z" id="Path" fill="#512178"></path>
            <polygon id="Path" fill="#512178" points="411.62 137.24 407.01 131.39 406.95 131.39 406.95 137.24 404.12 137.24 404.12 123.68 406.92 123.68 406.92 129.29 406.92 129.29 411.39 123.72 414.64 123.72 409.28 130.2 414.97 137.2"></polygon>
            <path d="M295.35,159.41 L293.25,159.41 L287.69,145.77 L290.69,145.77 L293.45,152.97 C293.8,153.86 294.11,154.72 294.38,155.48 L294.38,155.48 C294.640722,154.654675 294.944471,153.843565 295.29,153.05 L298.35,145.77 L301.35,145.77 L295.35,159.41 Z" id="Path" fill="#512178"></path>
            <path d="M313.41,157.58 C310.632382,160.119165 306.424023,160.27158 303.47,157.94 C302.035606,156.606371 301.248012,154.717603 301.31,152.76 C301.267109,150.882146 301.968001,149.06342 303.26,147.7 C304.587621,146.384601 306.391447,145.663071 308.26,145.7 C310.138966,145.564194 311.985236,146.245233 313.325922,147.568682 C314.666609,148.892131 315.371481,150.729434 315.26,152.61 C315.319026,154.445182 314.654627,156.230081 313.41,157.58 L313.41,157.58 Z M308.3,147.98 C305.96,147.98 304.25,149.69 304.25,152.65 C304.25,155.61 305.96,157.33 308.3,157.33 C310.64,157.33 312.3,155.62 312.3,152.65 C312.3,149.68 310.65,148 308.3,148 L308.3,147.98 Z" id="Shape" fill="#512178"></path>
            <path d="M329.21,157.58 C326.427443,160.116583 322.218594,160.268863 319.26,157.94 C317.829989,156.603322 317.043262,154.716635 317.1,152.76 C317.067202,150.874472 317.786928,149.053564 319.1,147.7 C320.42698,146.383623 322.231238,145.66192 324.1,145.7 C326.902781,145.729917 329.424037,147.410505 330.529998,149.98603 C331.635959,152.561555 331.118377,155.547056 329.21,157.6 L329.21,157.58 Z M324.12,148 C321.78,148 320.07,149.71 320.07,152.67 C320.07,155.63 321.78,157.35 324.12,157.35 C326.46,157.35 328.12,155.64 328.12,152.67 C328.12,149.7 326.45,148 324.12,148 Z" id="Shape" fill="#512178"></path>
            <path d="M340.21,159.44 C338.15,155.92 337.33,154.39 336.84,154.31 L335.78,154.31 L335.78,159.44 L332.97,159.44 L332.97,145.87 L336.92,145.87 C340.54,145.87 341.86,147.67 341.86,149.76 C341.931062,151.361091 340.911605,152.808061 339.38,153.28 L339.38,153.28 C340.06,153.68 341.38,155.96 343.38,159.42 L340.21,159.44 Z M336.98,148.22 L335.78,148.22 L335.78,152 L336.98,152 C337.513386,152.051057 338.043377,151.873312 338.438125,151.510983 C338.832872,151.148654 339.055273,150.635799 339.05,150.1 C339.062527,149.563548 338.841514,149.048088 338.44429,148.687324 C338.047066,148.32656 337.512773,148.156042 336.98,148.22 Z" id="Shape" fill="#512178"></path>
            <polygon id="Path" fill="#512178" points="354.06 148.19 350.42 148.19 350.42 159.45 347.58 159.45 347.58 148.19 343.58 148.19 343.58 145.89 354.67 145.89"></polygon>
            <path d="M362.32,159.59 C357.76,159.59 355.18,156.81 355.18,152.78 C355.18,148.75 358.25,145.68 362.88,145.68 C364.266011,145.666688 365.643595,145.896849 366.95,146.36 L366.95,148.97 C365.819517,148.357063 364.555911,148.030861 363.27,148.02 C359.67,148.02 358.27,150.19 358.27,152.74 C358.170285,153.948894 358.604466,155.1409 359.458331,156.002457 C360.312196,156.864015 361.500261,157.308869 362.71,157.22 C363.418102,157.244757 364.124333,157.132711 364.79,156.89 L364.79,152.45 L367.61,152.45 L367.61,158.38 C365.966625,159.194478 364.154037,159.609077 362.32,159.59 L362.32,159.59 Z" id="Path" fill="#512178"></path>
            <polygon id="Path" fill="#512178" points="370.24 159.36 370.24 145.79 378.12 145.79 377.38 148.1 373.08 148.1 373.08 151.26 377.4 151.26 377.4 153.59 373.08 153.59 373.08 157.05 378.08 157.05 378.08 159.36"></polygon>
            <polygon id="Path" fill="#512178" points="380.59 159.41 387.4 148.07 381.66 148.07 380.98 145.81 391.78 145.81 385.12 157.17 391.73 157.1 391.73 159.41"></polygon>
            <polygon id="Path" fill="#512178" points="394.05 159.42 394.05 145.85 401.92 145.85 401.17 148.16 396.87 148.16 396.87 151.33 401.2 151.33 401.2 153.65 396.87 153.65 396.87 157.11 401.87 157.11 401.87 159.42"></polygon>
            <polygon id="Path" fill="#512178" points="414.46 148.14 410.81 148.14 410.81 159.4 407.97 159.4 407.97 148.14 403.97 148.14 403.97 145.84 415.12 145.84"></polygon>
            <path d="M299.47,179.35 C296.696569,181.896277 292.485055,182.053044 289.53,179.72 C288.094115,178.386638 287.303211,176.498672 287.36,174.54 C287.32895,172.651829 288.048228,170.828458 289.36,169.47 C292.088287,166.667155 296.572155,166.606713 299.375,169.335 C302.177845,172.063287 302.238287,176.547155 299.51,179.35 L299.47,179.35 Z M294.36,169.76 C292.02,169.76 290.31,171.47 290.31,174.43 C290.31,177.39 292.02,179.1 294.36,179.1 C296.7,179.1 298.36,177.39 298.36,174.43 C298.36,171.47 296.71,169.76 294.36,169.76 Z" id="Shape" fill="#512178"></path>
            <path d="M315.38,181.24 L309.49,173.71 C308.98,173.05 308.61,172.51 308.2,171.91 L308.2,171.91 C308.2,172.37 308.2,173.19 308.2,173.81 L308.2,181.24 L305.4,181.24 L305.4,167.67 L308.24,167.67 L313.92,174.92 C314.45,175.6 314.83,176.14 315.19,176.69 L315.24,176.69 C315.19,176.05 315.19,175.17 315.19,174.59 L315.19,167.67 L317.99,167.67 L317.99,181.24 L315.38,181.24 Z" id="Path" fill="#512178"></path>
            <path d="M327.66,181.22 L323.4,181.22 L323.4,167.66 L327.91,167.66 C332.74,167.66 335.46,170.28 335.46,174.33 C335.46,178.38 332.35,181.22 327.66,181.22 Z M327.72,170 L326.22,170 L326.22,178.89 L327.76,178.89 C331.12,178.89 332.43,176.78 332.43,174.41 C332.43,171.73 330.83,170 327.72,170 Z" id="Shape" fill="#512178"></path>
            <polygon id="Path" fill="#512178" points="339.8 181.22 339.8 167.66 347.67 167.66 346.92 170 342.62 170 342.62 173.17 346.94 173.17 346.94 175.49 342.62 175.49 342.62 178.95 347.62 178.95 347.62 181.25"></polygon>
            <path d="M360.33,181.24 C358.27,177.72 357.45,176.19 356.96,176.11 L355.96,176.11 L355.96,181.24 L353.12,181.24 L353.12,167.67 L357.07,167.67 C360.69,167.67 362.01,169.47 362.01,171.57 C362.074164,173.16365 361.061741,174.602357 359.54,175.08 L359.54,175.08 C360.21,175.47 361.54,177.75 363.54,181.21 L360.33,181.24 Z M357.12,170 L355.93,170 L355.93,173.75 L357.12,173.75 C357.653275,173.80389 358.184353,173.62882 358.581041,173.268368 C358.977729,172.907916 359.202716,172.395985 359.2,171.86 C359.207049,171.325035 358.982156,170.813215 358.583343,170.456584 C358.18453,170.099953 357.650855,169.933439 357.12,170 L357.12,170 Z" id="Shape" fill="#512178"></path>
            <path d="M380.57,181.22 L378.18,181.22 L376.12,175.56 C375.871466,174.944513 375.664338,174.313107 375.5,173.67 L375.44,173.67 C375.272999,174.303444 375.072721,174.927643 374.84,175.54 L372.78,181.22 L370.47,181.22 L365.58,167.55 L368.7,167.55 L371.24,175.41 C371.44,176.03 371.58,176.61 371.75,177.25 L371.81,177.25 C371.96,176.63 372.16,176.03 372.37,175.43 L374.2,170.02 L373.31,167.55 L376.12,167.55 L378.77,175.21 C379.01,175.93 379.24,176.55 379.41,177.21 L379.47,177.21 C379.61,176.55 379.76,175.97 379.96,175.21 L382.31,167.51 L385.17,167.51 L380.57,181.22 Z" id="Path" fill="#512178"></path>
            <polygon id="Path" fill="#512178" points="390.12 181.2 390.12 167.64 392.93 167.64 392.93 181.2"></polygon>
            <path d="M397.49,184.76 C396.809209,184.747836 396.134462,184.629755 395.49,184.41 L396.07,182.31 C396.495377,182.452443 396.94142,182.523405 397.39,182.52 C398.72,182.52 398.85,181.47 398.85,179.96 L398.85,167.47 L401.65,167.47 L401.65,180.56 C401.65,183.05 400.51,184.76 397.49,184.76 Z" id="Path" fill="#512178"></path>
            <path d="M410.48,181.37 C408.944069,181.387304 407.438586,180.941235 406.16,180.09 L407.25,178.09 C408.166111,178.721224 409.247677,179.068995 410.36,179.09 C411.36,179.09 412.46,178.72 412.46,177.7 C412.46,175.9 409.16,175.6 407.52,173.7 C406.942865,173.031999 406.636143,172.172463 406.66,171.29 C406.66,169.29 408.28,167.43 411.27,167.43 C412.458615,167.402323 413.633918,167.684947 414.68,168.25 L414.68,170.68 C413.707665,170.073525 412.59492,169.729022 411.45,169.68 C410.45,169.68 409.66,170.13 409.66,170.91 C409.66,173.26 415.48,173.05 415.48,177.32 C415.44,179.82 413.26,181.37 410.48,181.37 Z" id="Path" fill="#512178"></path>
            <path d="M229.45,102.660301 C223.74,102.660301 221.59,99.43 221.59,95.26 L221.59,54.38 L230.73,54.38 L230.73,91.3 C230.73,93.45 231.07,94.46 232.68,94.46 C233.543438,94.4437406 234.402251,94.3296795 235.24,94.12 L236.38,100.91 C234.256507,102.073423 231.871266,102.675757 229.45,102.660301 Z" id="Path" fill="#512178"></path>
            <path d="M258.77,102.59 C253.6,116.24 248.35,117.85 242.57,117.85 C239.79333,117.924971 237.035328,117.374738 234.5,116.24 L236.79,109.31 C238.389796,110.200076 240.200013,110.642266 242.03,110.59 C245.03,110.59 247.75,108.51 250.17,101.65 L235.51,70.18 L245.19,70.18 L254.61,91.63 L254.74,91.63 L262.12,70.18 L271.12,70.18 L258.77,102.59 Z" id="Path" fill="#512178"></path>
            <path d="M288.85,102.66 C278.3,102.66 272.92,95.19 272.92,86.19 C272.814991,81.7180041 274.544589,77.3978289 277.706695,74.2338343 C280.868801,71.0698397 285.187942,69.3376619 289.66,69.44 C294.43,69.44 297.32,70.59 299.01,71.73 L298.87,79 C296.655156,77.1867388 293.861352,76.2318046 291,76.31 C286,76.31 282,80.21 282,85.79 C282,90.7 284.63,95.41 290.88,95.41 C293.496828,95.3738839 296.054646,94.6272777 298.28,93.25 L300.49,99.1 C297.040904,101.397906 292.994398,102.635498 288.85,102.66 L288.85,102.66 Z" id="Path" fill="#512178"></path>
            <path d="M312.28,88.61 C312.49,92.91 316.52,95.46 320.76,95.46 C323.750299,95.4928471 326.695107,94.7264373 329.29,93.24 L331.38,99 C327.799845,101.391561 323.585392,102.655896 319.28,102.63 C307.84,102.63 303.14,94.56 303.14,86.22 C303.14,77.22 308.52,69.41 318.07,69.41 C326.81,69.41 332.86,75.93 332.86,85.82 L332.86,88.58 L312.28,88.61 Z M317.8,76.1 C314.17,76.1 312.08,79.46 312.08,82.35 L323.58,82.35 C323.38,79.33 321.7,76.1 317.8,76.1 Z" id="Shape" fill="#512178"></path>
            <path d="M360.88,102 L359.47,98.9 C356.870404,101.307148 353.462873,102.65232 349.92,102.67 C345.75,102.67 338.76,100.58 338.76,89.89 L338.76,70.18 L347.83,70.18 L347.83,89.41 C347.83,92.98 349.58,95.53 353.48,95.53 C355.429607,95.4349402 357.294531,94.7044238 358.79,93.45 L358.79,70.18 L367.94,70.18 L367.94,94.66 C367.94,97.88 367.94,100.31 368.48,101.99 L360.88,102 Z" id="Path" fill="#512178"></path>
            <path d="M416.74,102 L416.74,83.23 C416.74,79.86 416.2,77.23 412.3,77.23 C409.790409,77.3249749 407.382412,78.2459898 405.45,79.85 L405.45,102 L396.37,102 L396.37,83.36 C396.37,80 395.83,77.18 392,77.18 C389.4858,77.2965825 387.074889,78.2146911 385.12,79.8 L385.12,102 L376.05,102 L376.05,70.18 L383.71,70.18 L384.59,73.54 C387.556225,71.0569452 391.255689,69.616508 395.12,69.44 C399.12,69.44 402.05,71.12 403.59,74.02 C406.734242,71.265698 410.715381,69.6521036 414.89,69.44 C420.54,69.44 425.78,72.13 425.78,80.81 L425.78,102 L416.74,102 Z" id="Path" fill="#512178"></path>
        </g>
    </g>
</svg>