<?xml version="1.0" encoding="iso-8859-1"?>
<!-- Generator: Adobe Illustrator 19.0.0, SVG Export Plug-In . SVG Version: 6.00 Build 0)  -->
<svg version="1.1" id="Capa_1" xmlns="http://www.w3.org/2000/svg" xmlns:xlink="http://www.w3.org/1999/xlink" x="0px" y="0px"
	 viewBox="0 0 58 58" style="enable-background:new 0 0 58 58;" xml:space="preserve">
<g>
	<path d="M29,0h-1v0.025C12.471,0.555,0,13.345,0,29s12.471,28.445,28,28.975V58h1c15.991,0,29-13.01,29-29S44.991,0,29,0z
		 M20.716,54.694C20.89,54.514,21,54.271,21,54c0-0.552-0.448-1-1-1s-1,0.448-1,1c0,0.028,0.014,0.051,0.016,0.078
		c-6.867-2.744-12.35-8.227-15.094-15.094C3.949,38.986,3.972,39,4,39c0.552,0,1-0.448,1-1s-0.448-1-1-1
		c-0.271,0-0.514,0.11-0.694,0.284C2.461,34.672,2,31.89,2,29C2,16.09,11.11,5.273,23.238,2.625C23.421,2.849,23.688,3,24,3
		c0.444,0,0.807-0.294,0.938-0.694C25.941,2.154,26.964,2.063,28,2.025V5c-0.552,0-1,0.448-1,1s0.448,1,1,1v6c-0.552,0-1,0.448-1,1
		s0.448,1,1,1v6c-0.552,0-1,0.448-1,1s0.448,1,1,1v6c-0.552,0-1,0.448-1,1s0.448,1,1,1v6c-0.552,0-1,0.448-1,1s0.448,1,1,1v6
		c-0.552,0-1,0.448-1,1s0.448,1,1,1v6c-0.552,0-1,0.448-1,1s0.448,1,1,1v0.975C25.468,55.882,23.025,55.441,20.716,54.694z"/>
	<circle cx="24" cy="10" r="1"/>
	<circle cx="16" cy="10" r="1"/>
	<circle cx="20" cy="14" r="1"/>
	<circle cx="20" cy="6" r="1"/>
	<circle cx="24" cy="18" r="1"/>
	<circle cx="16" cy="18" r="1"/>
	<circle cx="20" cy="22" r="1"/>
	<circle cx="24" cy="26" r="1"/>
	<circle cx="16" cy="26" r="1"/>
	<circle cx="20" cy="30" r="1"/>
	<circle cx="24" cy="34" r="1"/>
	<circle cx="16" cy="34" r="1"/>
	<circle cx="20" cy="38" r="1"/>
	<circle cx="24" cy="42" r="1"/>
	<circle cx="16" cy="42" r="1"/>
	<circle cx="20" cy="46" r="1"/>
	<circle cx="24" cy="50" r="1"/>
	<circle cx="16" cy="50" r="1"/>
	<circle cx="12" cy="14" r="1"/>
	<circle cx="8" cy="18" r="1"/>
	<circle cx="12" cy="22" r="1"/>
	<circle cx="4" cy="22" r="1"/>
	<circle cx="8" cy="26" r="1"/>
	<circle cx="12" cy="30" r="1"/>
	<circle cx="4" cy="30" r="1"/>
	<circle cx="8" cy="34" r="1"/>
	<circle cx="12" cy="38" r="1"/>
	<circle cx="8" cy="42" r="1"/>
	<circle cx="12" cy="46" r="1"/>
</g>
<g>
</g>
<g>
</g>
<g>
</g>
<g>
</g>
<g>
</g>
<g>
</g>
<g>
</g>
<g>
</g>
<g>
</g>
<g>
</g>
<g>
</g>
<g>
</g>
<g>
</g>
<g>
</g>
<g>
</g>
</svg>
